<?xml version="1.0" encoding="UTF-8" standalone="no"?>
<!-- Created with Inkscape (http://www.inkscape.org/) -->

<svg
   xmlns:dc="http://purl.org/dc/elements/1.1/"
   xmlns:cc="http://creativecommons.org/ns#"
   xmlns:rdf="http://www.w3.org/1999/02/22-rdf-syntax-ns#"
   xmlns:svg="http://www.w3.org/2000/svg"
   xmlns="http://www.w3.org/2000/svg"
   xmlns:sodipodi="http://sodipodi.sourceforge.net/DTD/sodipodi-0.dtd"
   xmlns:inkscape="http://www.inkscape.org/namespaces/inkscape"
   width="260mm"
   height="60mm"
   viewBox="0 0 921.25985 212.59842"
   id="svg2"
   version="1.1"
   inkscape:version="0.91 r13725"
   sodipodi:docname="header-background.svg"
   inkscape:export-filename="/media/vans531/WD-Black-Ext4/github-repos/simple-react-app/xdata/header-background"
   inkscape:export-xdpi="90"
   inkscape:export-ydpi="90">
  <defs
     id="defs4">
    <inkscape:path-effect
       effect="spiro"
       id="path-effect4356"
       is_visible="true" />
    <inkscape:path-effect
       effect="spiro"
       id="path-effect4352"
       is_visible="true" />
    <inkscape:path-effect
       effect="spiro"
       id="path-effect4348"
       is_visible="true" />
    <inkscape:path-effect
       effect="spiro"
       id="path-effect4344"
       is_visible="true" />
    <inkscape:path-effect
       effect="spiro"
       id="path-effect4340"
       is_visible="true" />
    <inkscape:path-effect
       effect="spiro"
       id="path-effect4336"
       is_visible="true" />
    <inkscape:path-effect
       effect="spiro"
       id="path-effect4332"
       is_visible="true" />
    <inkscape:path-effect
       effect="spiro"
       id="path-effect4328"
       is_visible="true" />
    <inkscape:path-effect
       effect="spiro"
       id="path-effect4320"
       is_visible="true" />
    <inkscape:path-effect
       effect="spiro"
       id="path-effect4316"
       is_visible="true" />
    <inkscape:path-effect
       effect="spiro"
       id="path-effect4304"
       is_visible="true" />
    <inkscape:path-effect
       effect="spiro"
       id="path-effect4248"
       is_visible="true" />
    <clipPath
       clipPathUnits="userSpaceOnUse"
       id="clipEmfPath1">
      <path
         d="m 4.4748,-1.78992 582.6182,0 0,841.26192 -582.6182,0 z"
         id="path3341"
         inkscape:connector-curvature="0" />
    </clipPath>
    <pattern
       id="EMFhbasepattern"
       patternUnits="userSpaceOnUse"
       width="6"
       height="6"
       x="0"
       y="0" />
    <clipPath
       clipPathUnits="userSpaceOnUse"
       id="clipEmfPath1-1">
      <path
         d="m 0.894959,2.68488 531.606041,0 0,444.79512 -531.606041,0 z"
         id="path6104"
         inkscape:connector-curvature="0" />
    </clipPath>
    <pattern
       id="EMFhbasepattern-6"
       patternUnits="userSpaceOnUse"
       width="6"
       height="6"
       x="0"
       y="0" />
  </defs>
  <sodipodi:namedview
     id="base"
     pagecolor="#ffffff"
     bordercolor="#666666"
     borderopacity="1.0"
     inkscape:pageopacity="0.0"
     inkscape:pageshadow="2"
     inkscape:zoom="0.98994949"
     inkscape:cx="235.68398"
     inkscape:cy="179.05728"
     inkscape:document-units="px"
     inkscape:current-layer="layer1-3"
     showgrid="false"
     inkscape:object-paths="false"
     inkscape:snap-nodes="false"
     inkscape:snap-others="false"
     inkscape:window-width="1983"
     inkscape:window-height="1128"
     inkscape:window-x="65"
     inkscape:window-y="24"
     inkscape:window-maximized="1" />
  <metadata
     id="metadata7">
    <rdf:RDF>
      <cc:Work
         rdf:about="">
        <dc:format>image/svg+xml</dc:format>
        <dc:type
           rdf:resource="http://purl.org/dc/dcmitype/StillImage" />
        <dc:title></dc:title>
      </cc:Work>
    </rdf:RDF>
  </metadata>
  <g
     inkscape:label="Layer 1"
     inkscape:groupmode="layer"
     id="layer1"
     transform="translate(0,-839.76379)">
    <g
       transform="matrix(5.5533437,0,0,5.4163774,-1767.1142,-2722.6535)"
       id="layer1-3"
       inkscape:label="Layer 1">
      <path
         style="fill:#cae7ff;fill-opacity:1;fill-rule:evenodd;stroke:#6e737d;stroke-width:5.00000009;stroke-linejoin:miter;stroke-miterlimit:4;stroke-dasharray:none;stroke-opacity:1;opacity:0.661"
         d="M 476.28711 45.923828 A 73.23606 34.850261 0 0 0 404.28125 74.576172 A 45.961941 18.182745 0 0 0 392.8125 77.259766 A 41.416256 21.213203 0 0 0 391.93945 77.238281 A 41.416256 21.213203 0 0 0 350.52344 98.451172 A 41.416256 21.213203 0 0 0 365.69531 114.8457 A 66.670068 28.284272 0 0 0 396.00977 138.29688 A 45.961941 24.24366 0 0 0 441.94141 162.0918 A 45.961941 24.24366 0 0 0 471.74219 156.26758 A 52.527932 24.748737 0 0 0 515.17773 167.14062 A 52.527932 24.748737 0 0 0 556.8125 157.43164 A 31.31473 20.20305 0 0 0 576.79688 162.08984 A 31.31473 20.20305 0 0 0 604.93359 150.70117 A 46.467017 16.667516 0 0 0 613.16211 150.97852 A 46.467017 16.667516 0 0 0 659.62891 134.3125 A 46.467017 16.667516 0 0 0 636.40039 119.89453 A 24.748736 13.131982 0 0 0 639.42578 113.60352 A 24.748736 13.131982 0 0 0 617.38672 100.55664 A 63.639608 34.850261 0 0 0 554.57422 71.177734 A 63.639608 34.850261 0 0 0 546.86523 71.476562 A 73.23606 34.850261 0 0 0 476.28711 45.923828 z "
         transform="matrix(0.18007169,0,0,0.18462524,318.20725,657.71216)"
         id="path4658" />
      <path
         style="fill:#cae7ff;fill-opacity:1;fill-rule:evenodd;stroke:#6e737d;stroke-width:0.91167128;stroke-linejoin:miter;stroke-miterlimit:4;stroke-dasharray:none;stroke-opacity:1;opacity:0.661"
         d="m 454.47947,664.23005 a 11.070976,7.605814 0 0 0 -10.61943,5.47311 12.373442,9.1765802 0 0 0 -0.45172,-0.0169 12.373442,9.1765802 0 0 0 -12.37342,9.17675 12.373442,9.1765802 0 0 0 12.37342,9.17642 12.373442,9.1765802 0 0 0 3.32858,-0.33887 13.187485,7.6884855 0 0 0 9.69615,2.48847 13.187485,7.6884855 0 0 0 7.50584,-1.37755 9.9313157,7.85383 0 0 0 6.65873,2.03899 9.9313157,7.85383 0 0 0 9.9313,-7.85386 9.9313157,7.85383 0 0 0 -0.60377,-2.67582 11.966422,9.3419225 0 0 0 2.72009,-5.92196 11.966422,9.3419225 0 0 0 -11.9664,-9.34202 11.966422,9.3419225 0 0 0 -7.50678,2.07096 11.070976,7.605814 0 0 0 -8.69259,-2.89768 z"
         id="path4413"
         inkscape:connector-curvature="0" />
      <path
         style="fill:#cae7ff;fill-opacity:1;fill-rule:evenodd;stroke:#6e737d;stroke-width:0.91167128;stroke-linecap:butt;stroke-linejoin:miter;stroke-miterlimit:4;stroke-dasharray:none;stroke-opacity:1;opacity:0.661"
         d="m 353.55979,661.52893 a 13.777431,9.9285022 0 0 0 -11.76452,4.7849 8.5446571,7.95553 0 0 0 -5.12614,-1.60268 8.5446571,7.95553 0 0 0 -7.75029,4.62616 8.0809932,7.2554433 0 0 0 -1.72152,-0.17104 8.0809932,7.2554433 0 0 0 -8.08097,7.25537 8.0809932,7.2554433 0 0 0 3.19919,5.77058 8.4121816,7.1281556 0 0 0 -0.02,0.33914 8.4121816,7.1281556 0 0 0 8.41215,7.12838 8.4121816,7.1281556 0 0 0 4.14282,-0.93449 8.6108941,5.7279819 0 0 0 8.50873,4.8804 8.6108941,5.7279819 0 0 0 7.97902,-3.58487 9.3395079,3.5640778 0 0 0 7.18936,1.29357 9.3395079,3.5640778 0 0 0 8.60938,-2.18376 4.3054471,3.5640778 0 0 0 3.31343,1.29284 4.3054471,3.5640778 0 0 0 4.28831,-3.2819 8.4784194,6.5553572 0 0 0 5.58104,1.62704 8.4784194,6.5553572 0 0 0 8.4785,-6.55543 8.4784194,6.5553572 0 0 0 -3.34673,-5.20773 9.0745577,6.3007803 0 0 0 2.02197,-3.95698 9.0745577,6.3007803 0 0 0 -9.07454,-6.3007 9.0745577,6.3007803 0 0 0 -0.19133,0.004 7.8822807,7.000867 0 0 0 -6.30003,-2.80493 7.8822807,7.000867 0 0 0 -6.26238,2.76358 13.777431,9.9285022 0 0 0 -12.08547,-5.18212 z"
         id="path4364"
         inkscape:connector-curvature="0" />
    </g>
    <path
       style="fill:#bfd0d8;fill-opacity:1;stroke-width:12.19999981;stroke-linejoin:miter;stroke-miterlimit:4.5;stroke-dasharray:none"
       d=""
       id="path4212"
       inkscape:connector-curvature="0" />
  </g>
</svg>
